<svg xmlns="http://www.w3.org/2000/svg" viewBox="0 0 63.999999 64" height="64" width="64" version="1.1">
	<path d="M 32.976562 0.001953125 C 29.312697 -0.028287796 25.642763 0.55597574 22.181641 1.7539062 C 14.380135 4.4255124 7.7362732 10.259231 4.0527344 17.632812 C 2.7702594 20.17435 1.8333802 22.887114 1.2714844 25.675781 C -0.14235975 32.62664 0.84264054 40.038709 4.0488281 46.369141 C 6.1325248 50.500115 9.1204331 54.174972 12.744141 57.054688 C 16.16234 59.779621 20.146471 61.793525 24.371094 62.916016 C 29.702601 64.346769 35.37491 64.315093 40.740234 63.09375 C 45.590487 61.977763 50.179069 59.659124 53.841797 56.277344 C 57.715236 52.718671 60.477484 48.031039 61.939453 42.992188 C 63.534093 37.496795 63.755433 31.629367 62.753906 26.003906 C 52.716523 25.998706 42.676707 26.002606 32.640625 26.003906 C 32.641925 30.167398 32.636731 34.329996 32.644531 38.492188 C 38.45599 38.490887 44.269271 38.489587 50.082031 38.492188 C 49.406975 42.481387 47.038051 46.130671 43.675781 48.376953 C 41.562169 49.797301 39.132724 50.718572 36.628906 51.158203 C 34.10948 51.587429 31.505109 51.643332 28.992188 51.134766 C 26.435042 50.624898 23.996409 49.559584 21.867188 48.058594 C 18.463297 45.667936 15.868357 42.169594 14.535156 38.232422 C 13.170737 34.227614 13.159692 29.770437 14.541016 25.769531 C 15.497019 22.949647 17.092745 20.346678 19.185547 18.226562 C 21.767406 15.583571 25.123683 13.693177 28.742188 12.917969 C 31.837817 12.257221 35.103523 12.383798 38.136719 13.300781 C 40.714676 14.082492 43.089332 15.49549 45.035156 17.355469 C 47.003092 15.39924 48.961095 13.430835 50.923828 11.470703 C 51.953974 10.415845 53.035578 9.4076891 54.033203 8.3242188 C 51.050734 5.564166 47.555138 3.3454974 43.736328 1.9433594 C 40.297969 0.67779325 36.640428 0.032194046 32.976562 0.001953125 z " style="fill:#ffffff;fill-rule:nonzero;" />
</svg>
