<svg xmlns="http://www.w3.org/2000/svg" viewBox="0 0 63.999999 64" height="64" width="64" version="1.1">
	<path d="M 32 0 C 23.400036 0 22.200781 -0.00081125 18.800781 0.19921875 C 7.2007714 0.79922275 0.79921965 7.2007727 0.19921875 18.800781 C -0.00078595 22.200776 -1.110223e-016 23.400034 0 32 C 0 40.600061 -0.00078595 41.799186 0.19921875 45.199219 C 0.79922345 56.799038 7.2007714 63.200776 18.800781 63.800781 C 22.200781 64.000814 23.400036 64 32 64 C 40.600061 64 41.799186 64.000814 45.199219 63.800781 C 56.799039 63.200776 63.200776 56.799038 63.800781 45.199219 C 64.000814 41.799186 64 40.600061 64 32 C 64 23.400034 64.000814 22.200776 63.800781 18.800781 C 63.200776 7.2007727 56.799039 0.79921375 45.199219 0.19921875 C 41.799186 -0.00081125 40.600061 -3.7007434e-017 32 0 z M 32 5.8007812 C 40.600061 5.8007812 41.599977 5.799967 45 6 C 53.600071 6.399972 57.6 10.399987 58 19 C 58.200033 22.400004 58.199219 23.400034 58.199219 32 C 58.199219 40.600061 58.200033 41.599976 58 45 C 57.600029 53.60007 53.600071 57.6 45 58 C 41.599977 58.200033 40.600061 58.199219 32 58.199219 C 23.400036 58.199219 22.4 58.200033 19 58 C 10.399987 57.600028 6.400003 53.60007 6 45 C 5.799996 41.599976 5.8007812 40.600061 5.8007812 32 C 5.8007812 23.400034 5.799996 22.400004 6 19 C 6.4 10.399986 10.399987 6.4 19 6 C 22.4 5.799967 23.400036 5.8007813 32 5.8007812 z M 49 11 C 46.99999 11 45.199219 12.799986 45.199219 15 C 45.199219 16.99999 46.99999 18.800781 49 18.800781 C 51.200023 18.800781 53 16.99999 53 15 C 53 12.799986 51.200023 11 49 11 z M 32 15.599609 C 23.000032 15.599609 15.599609 23.000034 15.599609 32 C 15.599609 41.00007 23.000032 48.400391 32 48.400391 C 41.00007 48.400391 48.400391 41.00007 48.400391 32 C 48.400391 23.000034 41.00007 15.599609 32 15.599609 z M 32 21.400391 C 37.800042 21.400391 42.599609 26.200034 42.599609 32 C 42.599609 37.800042 37.800042 42.599609 32 42.599609 C 26.200031 42.599609 21.400391 37.800042 21.400391 32 C 21.400391 26.200034 26.200031 21.400391 32 21.400391 z " style="fill:#ffffff;fill-rule:nonzero;" />
</svg>
