<svg xmlns="http://www.w3.org/2000/svg" viewBox="0 0 63.999999 64" height="64" width="64" version="1.1">
	<path d="M 44.310547 5.9941406 C 37.059965 5.9941406 31.179688 11.874418 31.179688 19.125 C 31.179688 20.153931 31.296077 21.153859 31.519531 22.115234 C 20.606632 21.56829 10.932019 16.342114 4.4570312 8.3964844 C 3.3267666 10.336122 2.6777344 12.590713 2.6777344 14.998047 C 2.6777344 19.554183 4.9975229 23.572366 8.5195312 25.927734 C 6.3681311 25.858874 4.3417143 25.269915 2.5722656 24.285156 C 2.5709656 24.339716 2.5703125 24.395308 2.5703125 24.451172 C 2.5703125 30.811833 7.0981778 36.119257 13.105469 37.326172 C 12.003786 37.626277 10.842352 37.787109 9.6445312 37.787109 C 8.7974823 37.787109 7.9754065 37.705377 7.1738281 37.550781 C 8.844541 42.766887 13.694591 46.562738 19.439453 46.667969 C 14.945677 50.189978 9.2836561 52.291016 3.1308594 52.291016 C 2.0720484 52.291016 1.0276314 52.228243 0 52.107422 C 5.8111199 55.833398 12.711378 58.005859 20.126953 58.005859 C 44.279538 58.005859 57.486328 37.997994 57.486328 20.646484 C 57.486328 20.078753 57.473909 19.5111 57.449219 18.947266 C 60.01375 17.09727 62.240945 14.783778 64 12.150391 C 61.645932 13.196211 59.115755 13.901103 56.458984 14.216797 C 59.17032 12.592854 61.251561 10.020429 62.232422 6.953125 C 59.695173 8.4575461 56.886484 9.5521076 53.894531 10.140625 C 51.500188 7.5890848 48.08719 5.9941406 44.310547 5.9941406 z " style="fill:#ffffff;fill-rule:nonzero;" />
</svg>
