<svg id="Warstwa_1" data-name="Warstwa 1" xmlns="http://www.w3.org/2000/svg" xmlns:xlink="http://www.w3.org/1999/xlink" viewBox="0 0 40 64"><defs><style>.cls-1{fill:none;}.cls-2{fill:#fff;}.cls-3{clip-path:url(#clip-path);}</style><clipPath id="clip-path"><rect class="cls-1" width="40" height="64"/></clipPath></defs><title>mouse-o-mobile</title><path class="cls-2" d="M19.94,58a2,2,0,0,1-1.41-.59,1.87,1.87,0,0,1-.26-.3,2.13,2.13,0,0,1-.18-.34,1.67,1.67,0,0,1-.11-.38,1.7,1.7,0,0,1,0-.39,2,2,0,0,1,.59-1.41,2,2,0,0,1,1.8-.55,1.57,1.57,0,0,1,.37.11,2.48,2.48,0,0,1,.35.19,1.43,1.43,0,0,1,.3.25,2,2,0,0,1,0,2.82,1.91,1.91,0,0,1-.65.44A2,2,0,0,1,19.94,58Z"/><g class="cls-3"><path class="cls-2" d="M35,64H5a5,5,0,0,1-5-5V5A5,5,0,0,1,5,0H35a5,5,0,0,1,5,5V59A5,5,0,0,1,35,64ZM5,4A1,1,0,0,0,4,5V59a1,1,0,0,0,1,1H35a1,1,0,0,0,1-1V5a1,1,0,0,0-1-1Z"/><rect class="cls-2" x="2" y="8" width="36" height="4"/><rect class="cls-2" x="2" y="48" width="36" height="4"/></g></svg>