<svg
	xmlns="http://www.w3.org/2000/svg"
	version="1.1"
	width="55"
	height="80"
	viewBox="0 0 55 80"
	class="mouseSvg">
	<g>
		<path
			style="fill: #ffffff;"
			d="M 25,0 C 11.222612,0 0,11.222612 0,25 l 0,30 c 0,13.777388 11.222612,25 25,25 l 5,0 C 43.777388,80 55,68.777388 55,55 L 55,25 C 55,11.222612 43.777388,0 30,0 l -5,0 z m 0,5 5,0 c 11.075112,0 20,8.924888 20,20 l 0,30 c 0,11.075112 -8.924888,20 -20,20 l -5,0 C 13.924888,75 5,66.075112 5,55 L 5,25 C 5,13.924888 13.924888,5 25,5 Z"
			class="mouseSvg__mouse" />
		<path
			style="fill: #ffffff;"
			d="M 27.5,12.5 C 23.38746,12.5 20,15.88746 20,20 l 0,5 c 0,4.11254 3.38746,7.5 7.5,7.5 4.11254,0 7.5,-3.38746 7.5,-7.5 l 0,-5 c 0,-4.11254 -3.38746,-7.5 -7.5,-7.5 z m 0,5 c 1.40996,0 2.5,1.09004 2.5,2.5 l 0,5 c 0,1.40996 -1.09004,2.5 -2.5,2.5 C 26.09004,27.5 25,26.40996 25,25 l 0,-5 c 0,-1.40996 1.09004,-2.5 2.5,-2.5 z"
			class="mouseSvg__wheel" />
	</g>
</svg>
